<svg xmlns="http://www.w3.org/2000/svg" viewBox="0 0 64 64" role="img" aria-label="UTOO Yutoko favicon">
  <rect x="4" y="4" width="56" height="56" rx="13" fill="#f8fafc" stroke="#0B8BEE" stroke-width="4"/>
  <path d="M16 13c10-4 24-4 34 4" fill="none" stroke="#FFCD00" stroke-width="4" stroke-linecap="round"/>
  <path d="M19 25 24 10 32 25Z" fill="#111827" stroke="#0f172a" stroke-width="2"/>
  <path d="M32 25 40 10 45 25Z" fill="#111827" stroke="#0f172a" stroke-width="2"/>
  <circle cx="32" cy="35" r="16" fill="#f8d5c4" stroke="#0f172a" stroke-width="2.5"/>
  <path d="M17 30c7-10 23-11 31 0-4-9-11-14-21-14-6 0-12 4-10 14Z" fill="#111827"/>
  <circle cx="26" cy="36" r="2.3" fill="#0f172a"/>
  <circle cx="38" cy="36" r="2.3" fill="#0f172a"/>
  <path d="M29 43c2 2 4 2 6 0" fill="none" stroke="#0f172a" stroke-width="2" stroke-linecap="round"/>
  <path d="M45 20c5 0 6 4 1 8-5-4-4-8-1-8Z" fill="#FFCD00" stroke="#0B8BEE" stroke-width="1.3"/>
</svg>
